<?xml version="1.0" encoding="utf-8"?>
<svg width="29px" height="29px" viewBox="0 0 29 29" version="1.1" xmlns:xlink="http://www.w3.org/1999/xlink" xmlns="http://www.w3.org/2000/svg">
  <desc>Created with Lunacy</desc>
  <defs>
    <rect width="28.2000732" height="28.2000732" id="artboard_1" />
    <clipPath id="clip_1">
      <use xlink:href="#artboard_1" clip-rule="evenodd" />
    </clipPath>
  </defs>
  <g id="Agregar" clip-path="url(#clip_1)">
    <use xlink:href="#artboard_1" stroke="none" fill="#FFFFFF" />
    <g id="Group-6">
      <path d="M0 14.1C0 6.3128 6.3128 0 14.1 0C21.8873 0 28.2001 6.3128 28.2001 14.1C28.2001 21.8873 21.8873 28.2001 14.1 28.2001C6.3128 28.2001 0 21.8873 0 14.1Z" id="Ellipse-Union" fill="none" stroke="#FFAE00" stroke-width="3" />
      <path d="M9.04494 0L9.04294 0Q8.94046 0 8.83848 0.0100448Q8.73649 0.0200896 8.63598 0.0400825Q8.53547 0.0600754 8.4374 0.0898239Q8.33933 0.119572 8.24465 0.15879Q8.14997 0.198007 8.05959 0.246316Q7.96921 0.294625 7.884 0.35156Q7.79879 0.408495 7.71958 0.473508Q7.64036 0.53852 7.56789 0.610985Q7.49543 0.683449 7.43042 0.762668Q7.3654 0.841886 7.30847 0.927095Q7.25153 1.0123 7.20322 1.10268Q7.15492 1.19306 7.1157 1.28774Q7.07648 1.38242 7.04673 1.48049Q7.01698 1.57856 6.99699 1.67907Q6.977 1.77958 6.96695 1.88157Q6.95691 1.98355 6.95691 2.08603L6.95691 6.95618L2.08591 6.95618Q1.98344 6.95618 1.88146 6.96622Q1.77948 6.97627 1.67898 6.99626Q1.57848 7.01625 1.48042 7.04599Q1.38236 7.07574 1.28769 7.11495Q1.19302 7.15417 1.10265 7.20247Q1.01227 7.25078 0.927073 7.30771Q0.841871 7.36464 0.76266 7.42964Q0.683449 7.49465 0.610991 7.56711Q0.538533 7.63957 0.473526 7.71878Q0.408519 7.79799 0.351589 7.88319Q0.29466 7.96839 0.246355 8.05876Q0.198051 8.14914 0.158837 8.24381Q0.119623 8.33848 0.0898768 8.43654Q0.0601311 8.53459 0.04014 8.6351Q0.0201489 8.7356 0.010105 8.83758Q6.10352e-05 8.93955 6.10352e-05 9.04202L6.10352e-05 9.04403Q6.10352e-05 9.1465 0.010105 9.24847Q0.0201489 9.35045 0.04014 9.45095Q0.0601311 9.55146 0.0898769 9.64952Q0.119623 9.74757 0.158837 9.84224Q0.198051 9.93692 0.246355 10.0273Q0.29466 10.1177 0.351589 10.2029Q0.408519 10.2881 0.473526 10.3673Q0.538533 10.4465 0.610991 10.5189Q0.683449 10.5914 0.76266 10.6564Q0.841872 10.7214 0.927073 10.7783Q1.01227 10.8353 1.10265 10.8836Q1.19302 10.9319 1.28769 10.9711Q1.38236 11.0103 1.48042 11.0401Q1.57848 11.0698 1.67898 11.0898Q1.77948 11.1098 1.88146 11.1198Q1.98344 11.1299 2.08591 11.1299L6.95691 11.1299L6.95691 16.0016Q6.95691 16.1041 6.96695 16.2061Q6.977 16.308 6.99699 16.4086Q7.01698 16.5091 7.04673 16.6071Q7.07648 16.7052 7.1157 16.7999Q7.15492 16.8946 7.20322 16.9849Q7.25153 17.0753 7.30847 17.1605Q7.3654 17.2457 7.43042 17.325Q7.49543 17.4042 7.56789 17.4766Q7.64036 17.5491 7.71958 17.6141Q7.79879 17.6791 7.884 17.7361Q7.96921 17.793 8.05959 17.8413Q8.14997 17.8896 8.24465 17.9288Q8.33933 17.968 8.4374 17.9978Q8.53547 18.0275 8.63598 18.0475Q8.73649 18.0675 8.83848 18.0776Q8.94046 18.0876 9.04294 18.0876L9.04494 18.0876Q9.14742 18.0876 9.24941 18.0776Q9.3514 18.0675 9.45191 18.0475Q9.55242 18.0275 9.65049 17.9978Q9.74855 17.968 9.84323 17.9288Q9.93791 17.8896 10.0283 17.8413Q10.1187 17.793 10.2039 17.7361Q10.2891 17.6791 10.3683 17.6141Q10.4475 17.5491 10.52 17.4766Q10.5925 17.4042 10.6575 17.325Q10.7225 17.2457 10.7794 17.1605Q10.8363 17.0753 10.8847 16.9849Q10.933 16.8946 10.9722 16.7999Q11.0114 16.7052 11.0412 16.6071Q11.0709 16.5091 11.0909 16.4086Q11.1109 16.308 11.1209 16.2061Q11.131 16.1041 11.131 16.0016L11.131 11.1299L16.0002 11.1299Q16.1027 11.1299 16.2047 11.1198Q16.3066 11.1098 16.4071 11.0898Q16.5076 11.0698 16.6057 11.0401Q16.7038 11.0103 16.7984 10.9711Q16.8931 10.9319 16.9835 10.8836Q17.0738 10.8353 17.159 10.7783Q17.2442 10.7214 17.3235 10.6564Q17.4027 10.5914 17.4751 10.5189Q17.5476 10.4465 17.6126 10.3673Q17.6776 10.2881 17.7345 10.2029Q17.7915 10.1177 17.8398 10.0273Q17.8881 9.93691 17.9273 9.84224Q17.9665 9.74757 17.9962 9.64951Q18.026 9.55145 18.046 9.45095Q18.066 9.35045 18.076 9.24847Q18.0861 9.14649 18.0861 9.04402L18.0861 9.04202Q18.0861 8.83658 18.046 8.63509Q18.0059 8.4336 17.9273 8.2438Q17.8487 8.054 17.7345 7.88319Q17.6204 7.71237 17.4751 7.56711Q17.3299 7.42184 17.159 7.30771Q16.9882 7.19357 16.7984 7.11495Q16.6086 7.03633 16.4071 6.99626Q16.2057 6.95618 16.0002 6.95618L11.131 6.95618L11.131 2.08603Q11.131 1.98355 11.1209 1.88157Q11.1109 1.77958 11.0909 1.67907Q11.0709 1.57856 11.0412 1.48049Q11.0114 1.38242 10.9722 1.28774Q10.933 1.19306 10.8847 1.10268Q10.8363 1.0123 10.7794 0.927095Q10.7225 0.841886 10.6575 0.762668Q10.5925 0.683449 10.52 0.610985Q10.4475 0.53852 10.3683 0.473508Q10.2891 0.408495 10.2039 0.35156Q10.1187 0.294625 10.0283 0.246316Q9.93791 0.198007 9.84323 0.15879Q9.74855 0.119572 9.65048 0.0898239Q9.55242 0.0600754 9.45191 0.0400825Q9.3514 0.0200896 9.24941 0.0100448Q9.14742 0 9.04494 0Z" transform="translate(5.199951 5)" id="Rectangle-5-Union" fill="#FFAE00" fill-rule="evenodd" stroke="none" />
    </g>
  </g>
</svg>