<svg xmlns="http://www.w3.org/2000/svg" xml:space="preserve" width="40.2626mm" height="44.7524mm" version="1.1" style="shape-rendering:geometricPrecision; text-rendering:geometricPrecision; image-rendering:optimizeQuality; fill-rule:evenodd; clip-rule:evenodd"
viewBox="0 0 1170 1301"
 xmlns:xlink="http://www.w3.org/1999/xlink">
 <defs>
  <style type="text/css">
   <![CDATA[
    .fil0 {fill:#201E1E}
   ]]>
  </style>
 </defs>
 <g id="Capa_x0020_1">
  <metadata id="CorelCorpID_0Corel-Layer"/>
  <path class="fil0" d="M707 552c68,0 123,55 123,123 0,67 -55,122 -123,122 -68,0 -123,-55 -123,-122 0,-68 55,-123 123,-123zm0 63c33,0 59,27 59,60 0,32 -26,59 -59,59 -33,0 -60,-27 -60,-59 0,-33 27,-60 60,-60z"/>
  <path class="fil0" d="M464 310c68,0 123,55 123,123 0,68 -55,123 -123,123 -68,0 -123,-55 -123,-123 0,-68 55,-123 123,-123zm0 63c33,0 59,27 59,60 0,33 -26,59 -59,59 -33,0 -59,-26 -59,-59 0,-33 26,-60 59,-60z"/>
  <path class="fil0" d="M105 731l192 0 0 -660 575 0 3 660 184 0 -474 485 -480 -485zm115 -697l0 643 -184 0c-10,0 -24,4 -29,10 -20,29 8,50 27,70 159,158 320,315 479,474 61,62 70,86 98,58 164,-167 328,-333 493,-498 21,-21 66,-56 66,-85 0,-8 -2,-13 -8,-19 -11,-11 -41,-10 -58,-10l-155 0 0 -650c0,-11 -16,-27 -25,-27l-677 0c-16,0 -27,18 -27,34z"/>
  <path class="fil0" d="M437 669c0,13 12,32 32,32 20,0 53,-40 72,-58l132 -132c31,-31 78,-64 51,-95 -24,-28 -54,10 -61,15l-200 198c-8,9 -26,26 -26,40z"/>
 </g>
</svg>
